
        <svg xmlns="http://www.w3.org/2000/svg" xmlns:xlink="http://www.w3.org/1999/xlink" version="1.1" width="3200" 
        height="1895.0000625848843" viewBox="0 0 3200 1895.0000625848843">
			
			<g transform="scale(10) translate(10, 10)">
				<defs id="SvgjsDefs1134"></defs><g id="SvgjsG1135" featureKey="xJRin6-0" transform="matrix(0.923031506487624,0,0,0.923031506487624,104.34842555589024,-3.871194363558584)" fill="#2a9d8f"><path xmlns="http://www.w3.org/2000/svg" stroke="#2a9d8f" stroke-width="0.8397" stroke-miterlimit="10" d="M90.627,50.581h-6.881V35.326H16.098v15.255H9.373v24.562  h6.725v18.125h67.648V75.143h6.881V50.581z M34.729,67.66c-4.214,0-7.629-3.417-7.629-7.63c0-4.214,3.416-7.63,7.629-7.63  s7.629,3.416,7.629,7.63C42.358,64.243,38.943,67.66,34.729,67.66z M66.205,67.66c-4.213,0-7.631-3.417-7.631-7.63  c0-4.214,3.418-7.63,7.631-7.63s7.629,3.416,7.629,7.63C73.834,64.243,70.418,67.66,66.205,67.66z"></path><rect xmlns="http://www.w3.org/2000/svg" x="38.011" y="28.412" stroke="#2a9d8f" stroke-width="0.8397" stroke-miterlimit="10" width="24.444" height="3.232"></rect><rect xmlns="http://www.w3.org/2000/svg" x="42.581" y="22.841" stroke="#2a9d8f" stroke-width="0.8397" stroke-miterlimit="10" width="15.116" height="2.835"></rect><path xmlns="http://www.w3.org/2000/svg" stroke="#2a9d8f" stroke-width="0.8397" stroke-miterlimit="10" d="M54.479,8.673c0-2.474-2.004-4.479-4.478-4.479  c-2.473,0-4.479,2.005-4.479,4.479c0,2.1,1.452,3.849,3.403,4.333v6.896h2.43v-6.981C53.16,12.345,54.479,10.671,54.479,8.673z"></path></g><g id="SvgjsG1136" featureKey="tgvQcv-0" transform="matrix(4.687500558793611,0,0,4.687500558793611,-9.375001117587223,74.81250033527617)" fill="#111111"><path d="M3.5 20 l-1.5 0 l0 -14 l6.2 0 c2.1 0 3.5 1.4 3.5 3.3 l0 1.9 c0 2.8 -2.7 3.2 -2.7 3.2 l3.1 5 l0 0.6 l-1.5 0 l-3.1 -5.5 l-4 0 l0 5.5 z M8.2 7.300000000000001 l-4.7 0 l0 5.9 l4.7 0 c1.1 0 2 -0.9 2 -2 l0 -1.9 c0 -1.1 -0.9 -2 -2 -2 z M14.7 16.9 l0 -7.8 c0 -1.9 1.4 -3.3 3.5 -3.3 l3.5 0 c2.1 0 3.5 1.4 3.5 3.3 l0 7.8 c0 1.9 -1.4 3.3 -3.5 3.3 l-3.5 0 c-2.1 0 -3.5 -1.4 -3.5 -3.3 z M23.7 16.9 l0 -7.8 c0 -1.1 -0.9 -2 -2 -2 l-3.5 0 c-1.1 0 -2 0.9 -2 2 l0 7.8 c0 1.1 0.9 2 2 2 l3.5 0 c1.1 0 2 -0.9 2 -2 z M35.5 12.9 l0 1.3 l-7.9 0 l0 -1.3 l7.9 0 z M39.3 6 l0 3.8 l4.1 0 c1.8 0 3 1.2 3 2.8 l0 4.6 c0 1.6 -1.2 2.8 -3 2.8 l-5.5 0 l0 -14 l1.4 0 z M43.4 11 l-4.1 0 l0 7.8 l4.1 0 c0.9 0 1.6 -0.7 1.6 -1.6 l0 -4.6 c0 -0.9 -0.7 -1.6 -1.6 -1.6 z M50.599999999999994 12.4 l0 5 c0 0.9 0.7 1.6 1.6 1.6 l2.5 0 c0.9 0 1.6 -0.7 1.6 -1.6 l0 -5 c0 -0.9 -0.7 -1.6 -1.6 -1.6 l-2.5 0 c-0.9 0 -1.6 0.7 -1.6 1.6 z M49.199999999999996 17.4 l0 -5 c0 -1.6 1.2 -2.8 3 -2.8 l2.5 0 c1.8 0 3 1.2 3 2.8 l0 5 c0 1.6 -1.2 2.8 -3 2.8 l-2.5 0 c-1.9 0 -3 -1.2 -3 -2.8 z M59.49999999999999 11 l0 -1.2 l1.6 0 l0.6 -3 l0.8 0 l0 3 l2.9 0 l0 1.2 l-2.9 0 l0 6.2 c0 0.9 0.7 1.6 1.6 1.6 l1.9 0 l0 1.2 l-1.9 0 c-1.8 0 -3 -1.2 -3 -2.8 l0 -6.2 l-1.6 0 z"></path></g>
			</g>
		</svg>
	