<svg width="3163" height="1279" viewBox="0 0 3163 1279" fill="none" xmlns="http://www.w3.org/2000/svg">
<path d="M891.892 573.883C891.892 568.36 887.415 563.883 881.892 563.883H823.228V438.657C823.228 423.746 811.14 411.657 796.228 411.657H175.188C160.276 411.657 148.188 423.746 148.188 438.657V563.883H91.0811C85.5582 563.883 81.0811 568.36 81.0811 573.883V798.98C81.0811 804.503 85.5582 808.98 91.0811 808.98H148.188V962.844C148.188 977.756 160.276 989.844 175.188 989.844H796.228C811.14 989.844 823.228 977.756 823.228 962.844V808.98H881.892C887.415 808.98 891.892 804.503 891.892 798.98V573.883ZM334.101 734.309C292.051 734.309 257.974 700.212 257.974 658.171C257.974 616.121 292.061 582.034 334.101 582.034C376.142 582.034 410.229 616.121 410.229 658.171C410.229 700.212 376.152 734.309 334.101 734.309ZM648.192 734.309C606.151 734.309 572.044 700.212 572.044 658.171C572.044 616.121 606.151 582.034 648.192 582.034C690.232 582.034 724.319 616.121 724.319 658.171C724.319 700.212 690.232 734.309 648.192 734.309Z" fill="#2A9D8F" stroke="#2A9D8F" stroke-width="8.37913" stroke-miterlimit="10"/>
<path d="M608.771 342.665H368.852C367.747 342.665 366.852 343.56 366.852 344.665V372.916C366.852 374.02 367.747 374.916 368.852 374.916H608.771C609.876 374.916 610.771 374.02 610.771 372.916V344.665C610.771 343.56 609.876 342.665 608.771 342.665Z" fill="#2A9D8F" stroke="#2A9D8F" stroke-width="8.37913" stroke-miterlimit="10"/>
<path d="M561.293 287.073H414.455C413.35 287.073 412.455 287.969 412.455 289.073V313.363C412.455 314.467 413.35 315.363 414.455 315.363H561.293C562.397 315.363 563.293 314.467 563.293 313.363V289.073C563.293 287.969 562.397 287.073 561.293 287.073Z" fill="#2A9D8F" stroke="#2A9D8F" stroke-width="8.37913" stroke-miterlimit="10"/>
<path d="M531.181 145.695C531.181 121.007 511.184 101 486.496 101C461.819 101 441.802 121.007 441.802 145.695C441.802 166.65 456.291 184.103 475.759 188.932V255.746C475.759 256.85 476.655 257.746 477.759 257.746H498.008C499.112 257.746 500.008 256.85 500.008 255.746V188.084C518.019 182.337 531.181 165.632 531.181 145.695Z" fill="#2A9D8F" stroke="#2A9D8F" stroke-width="8.37913" stroke-miterlimit="10"/>
<path d="M1101.56 968.666H1054.05V525.253H1250.42C1316.93 525.253 1361.28 569.595 1361.28 629.772V689.949C1361.28 778.632 1275.76 791.301 1275.76 791.301L1373.94 949.662V968.666H1326.44L1228.25 794.468H1101.56V968.666ZM1250.42 566.427H1101.56V753.294H1250.42C1285.26 753.294 1313.77 724.789 1313.77 689.949V629.772C1313.77 594.932 1285.26 566.427 1250.42 566.427ZM1456.29 870.481V623.438C1456.29 563.26 1500.63 518.919 1567.15 518.919H1678C1744.51 518.919 1788.85 563.26 1788.85 623.438V870.481C1788.85 930.659 1744.51 975 1678 975H1567.15C1500.63 975 1456.29 930.659 1456.29 870.481ZM1741.34 870.481V623.438C1741.34 588.598 1712.84 560.093 1678 560.093H1567.15C1532.31 560.093 1503.8 588.598 1503.8 623.438V870.481C1503.8 905.321 1532.31 933.826 1567.15 933.826H1678C1712.84 933.826 1741.34 905.321 1741.34 870.481ZM2115.08 743.792V784.966H1864.87V743.792H2115.08ZM2235.43 525.253V645.608H2365.29C2422.3 645.608 2460.3 683.615 2460.3 734.291V879.983C2460.3 930.659 2422.3 968.666 2365.29 968.666H2191.09V525.253H2235.43ZM2365.29 683.615H2235.43V930.659H2365.29C2393.79 930.659 2415.96 908.488 2415.96 879.983V734.291C2415.96 705.786 2393.79 683.615 2365.29 683.615ZM2593.33 727.956V886.318C2593.33 914.823 2615.5 936.993 2644 936.993H2723.18C2751.69 936.993 2773.86 914.823 2773.86 886.318V727.956C2773.86 699.451 2751.69 677.28 2723.18 677.28H2644C2615.5 677.28 2593.33 699.451 2593.33 727.956ZM2548.99 886.318V727.956C2548.99 677.28 2586.99 639.274 2644 639.274H2723.18C2780.19 639.274 2818.2 677.28 2818.2 727.956V886.318C2818.2 936.993 2780.19 975 2723.18 975H2644C2583.83 975 2548.99 936.993 2548.99 886.318ZM2875.21 683.615V645.608H2925.89L2944.89 550.591H2970.23V645.608H3062.08V683.615H2970.23V879.983C2970.23 908.488 2992.4 930.659 3020.9 930.659H3081.08V968.666H3020.9C2963.89 968.666 2925.89 930.659 2925.89 879.983V683.615H2875.21Z" fill="#111111"/>
</svg>
