<svg width="1200" height="1200" xmlns="http://www.w3.org/2000/svg" xmlns:xlink="http://www.w3.org/1999/xlink" version="1.1"><g transform="scale(12.011517025965068) translate(-0.4677906424628411, 0.8012055962456595)">                        <g fill="#2a9d8f"><path xmlns="http://www.w3.org/2000/svg" stroke="#2a9d8f" stroke-width="0.8397" stroke-miterlimit="10" d="M90.627,50.581h-6.881V35.326H16.098v15.255H9.373v24.562  h6.725v18.125h67.648V75.143h6.881V50.581z M34.729,67.66c-4.214,0-7.629-3.417-7.629-7.63c0-4.214,3.416-7.63,7.629-7.63  s7.629,3.416,7.629,7.63C42.358,64.243,38.943,67.66,34.729,67.66z M66.205,67.66c-4.213,0-7.631-3.417-7.631-7.63  c0-4.214,3.418-7.63,7.631-7.63s7.629,3.416,7.629,7.63C73.834,64.243,70.418,67.66,66.205,67.66z"/><rect xmlns="http://www.w3.org/2000/svg" x="38.011" y="28.412" stroke="#2a9d8f" stroke-width="0.8397" stroke-miterlimit="10" width="24.444" height="3.232"/><rect xmlns="http://www.w3.org/2000/svg" x="42.581" y="22.841" stroke="#2a9d8f" stroke-width="0.8397" stroke-miterlimit="10" width="15.116" height="2.835"/><path xmlns="http://www.w3.org/2000/svg" stroke="#2a9d8f" stroke-width="0.8397" stroke-miterlimit="10" d="M54.479,8.673c0-2.474-2.004-4.479-4.478-4.479  c-2.473,0-4.479,2.005-4.479,4.479c0,2.1,1.452,3.849,3.403,4.333v6.896h2.43v-6.981C53.16,12.345,54.479,10.671,54.479,8.673z"/></g>        </g></svg>