<?xml version="1.0" encoding="UTF-8" standalone="no"?>
<svg
   id="Layer_1"
   data-name="Layer 1"
   viewBox="0 0 351.39998 60.994997"
   version="1.1"
   width="351.39999"
   height="60.994999"
   xmlns="http://www.w3.org/2000/svg"
   xmlns:svg="http://www.w3.org/2000/svg">
  <defs
     id="defs11" />
  <g
     id="g2"
     transform="translate(-25.12,-26.5625)">
    <path
       d="M 53.31,63.32 V 49.26 c 0,-3.02 2.47,-5.48 5.48,-5.48 h 14.15 c 3.02,0 5.48,2.47 5.48,5.48 V 70.9 H 88.85 V 42.32 c 0,-2.11 -1.12,-4.05 -2.95,-5.11 L 68.82,27.35 c -1.83,-1.05 -4.07,-1.05 -5.9,0 l -17.08,9.86 c -1.83,1.05 -2.95,3 -2.95,5.11 v 21 h 10.43 z"
       id="path1" />
    <path
       d="m 60.66,50.8 v 14.06 c 0,3.02 -2.47,5.48 -5.48,5.48 H 41.03 c -3.02,0 -5.48,-2.47 -5.48,-5.48 V 43.22 H 25.12 V 71.8 c 0,2.11 1.12,4.05 2.95,5.11 l 17.08,9.86 c 1.83,1.05 4.07,1.05 5.9,0 l 17.08,-9.86 c 1.83,-1.05 2.95,-3 2.95,-5.11 v -21 H 60.65 Z"
       id="path2" />
  </g>
  <g
     id="g11"
     transform="translate(-25.12,-26.5625)">
    <path
       d="m 123.04,50.68 h -9.07 v -6.34 h 25.08 v 6.34 h -9.07 V 70.9 h -6.94 z"
       id="path3" />
    <path
       d="m 142.52,44.35 h 22.19 v 5.96 h -15.18 v 4.51 h 14.61 v 5.61 h -14.61 v 4.51 h 15.18 V 70.9 H 142.52 V 44.34 Z"
       id="path4" />
    <path
       d="m 168.18,44.35 h 19.8 c 2.92,0 5.31,2.39 5.31,5.31 v 21.25 h -6.98 V 50.69 h -11.19 v 20.22 h -6.94 z"
       id="path5" />
    <path
       d="m 205.84,50.68 h -9.07 v -6.34 h 25.08 v 6.34 h -9.07 V 70.9 h -6.94 z"
       id="path6" />
    <path
       d="m 225.32,44.35 h 6.94 v 10.13 h 11.19 V 44.35 h 6.98 v 26.56 h -6.98 V 60.82 h -11.19 v 10.09 h -6.94 z"
       id="path7" />
    <path
       d="M 268.57,65.59 V 49.66 c 0,-2.92 2.39,-5.31 5.31,-5.31 h 14.49 c 2.92,0 5.31,2.39 5.31,5.31 v 3.07 h -6.98 v -2.35 h -11.19 v 14.45 h 11.19 v -4.59 h -5.58 v -5.35 h 12.56 v 10.7 c 0,2.92 -2.39,5.31 -5.31,5.31 h -14.49 c -2.92,0 -5.31,-2.39 -5.31,-5.31 z"
       id="path8" />
    <path
       d="m 297.15,44.35 h 22.19 v 5.96 h -15.18 v 4.51 h 14.61 v 5.61 h -14.61 v 4.51 h 15.18 V 70.9 H 297.15 V 44.34 Z"
       id="path9" />
    <path
       d="m 322.82,49.7 c 0,-2.92 2.39,-5.35 5.31,-5.35 h 14.49 c 2.92,0 5.31,2.39 5.31,5.31 v 21.25 h -6.98 v -7.28 h -11.19 v 7.28 h -6.94 z m 18.13,7.77 V 50.6 h -11.19 v 6.87 z"
       id="path10" />
    <path
       d="m 351.41,44.35 h 19.8 c 2.92,0 5.31,2.39 5.31,5.31 v 4.93 c 0,1.48 -0.61,2.85 -1.97,3.79 1.29,0.87 1.86,2.09 1.97,3.41 v 9.11 h -6.98 v -9.07 h -11.19 v 9.07 h -6.94 V 44.34 Z m 18.13,11.49 v -5.31 h -11.19 v 5.31 z"
       id="path11" />
  </g>
</svg>
